<svg width="375" height="9" viewBox="0 0 375 9" fill="none" xmlns="http://www.w3.org/2000/svg">
<rect x="375" y="2" width="251" height="2" transform="rotate(-180 375 2)" fill="#101010" fill-opacity="0.6"/>
<path d="M190.483 4H-6.07967e-06V0H193L190.483 4Z" fill="#101010" fill-opacity="0.8"/>
<path d="M19.2522 5H29.2969L27.6228 9H17.5781L19.2522 5Z" fill="#2FF522"/>
<path d="M4.18528 5H14.2299L12.5558 9H2.51117L4.18528 5Z" fill="#2FF522"/>
<path d="M34.3192 5H44.3638L42.6897 9H32.6451L34.3192 5Z" fill="#2FF522"/>
<path d="M49.3862 5H59.4308L57.7567 9H47.7121L49.3862 5Z" fill="#2FF522"/>
<path d="M64.4532 5H74.4978L72.8237 9H62.7791L64.4532 5Z" fill="#2FF522"/>
<path d="M79.5201 5H89.5648L87.8907 9H77.846L79.5201 5Z" fill="#2FF522"/>
<path d="M94.5871 5H104.632L102.958 9H92.913L94.5871 5Z" fill="#2FF522"/>
<path d="M109.654 5H119.699L118.025 9H107.98L109.654 5Z" fill="#2FF522"/>
<path d="M124.721 5H134.766L133.092 9H123.047L124.721 5Z" fill="#2FF522"/>
<path d="M139.788 5H149.833L148.159 9H138.114L139.788 5Z" fill="#2FF522"/>
<path d="M154.855 5H164.9L163.225 9H153.181L154.855 5Z" fill="#2FF522"/>
<path d="M169.922 5H179.967L178.292 9H168.248L169.922 5Z" fill="#2FF522"/>
<path d="M205.915 3H215.96L211.775 9H201.73L205.915 3Z" fill="#2FF522"/>
<path d="M190.43 5L191.685 3H198.382L194.196 9H184.152L187.197 5.03447L190.43 5Z" fill="#2FF522"/>
<path d="M223.493 3H233.538L229.353 9H219.308L223.493 3Z" fill="#2FF522"/>
<path d="M241.071 3H251.116L246.931 9H236.886L241.071 3Z" fill="#2FF522"/>
<path d="M258.65 3H268.694L264.509 9H254.464L258.65 3Z" fill="#2FF522"/>
<path d="M276.228 3H286.272L282.087 9H272.042L276.228 3Z" fill="#2FF522"/>
<path d="M293.806 3H303.85L299.665 9H289.621L293.806 3Z" fill="#2FF522"/>
<path d="M311.384 3H321.429L317.243 9H307.199L311.384 3Z" fill="#2FF522"/>
<path d="M328.962 3H339.007L334.821 9H324.777L328.962 3Z" fill="#2FF522"/>
<path d="M346.54 3H356.585L352.4 9H342.355L346.54 3Z" fill="#2FF522"/>
<path d="M364.118 3H374.163L369.978 9H359.933L364.118 3Z" fill="#2FF522"/>
<path d="M19.2522 5H29.2969L27.6228 9H17.5781L19.2522 5Z" fill="#2FF522"/>
<path d="M4.18528 5H14.2299L12.5558 9H2.51117L4.18528 5Z" fill="#2FF522"/>
<path d="M34.3192 5H44.3638L42.6897 9H32.6451L34.3192 5Z" fill="#2FF522"/>
<path d="M49.3862 5H59.4308L57.7567 9H47.7121L49.3862 5Z" fill="#2FF522"/>
<path d="M64.4532 5H74.4978L72.8237 9H62.7791L64.4532 5Z" fill="#2FF522"/>
<path d="M79.5201 5H89.5648L87.8907 9H77.846L79.5201 5Z" fill="#2FF522"/>
<path d="M94.5871 5H104.632L102.958 9H92.913L94.5871 5Z" fill="#2FF522"/>
<path d="M109.654 5H119.699L118.025 9H107.98L109.654 5Z" fill="#2FF522"/>
<path d="M124.721 5H134.766L133.092 9H123.047L124.721 5Z" fill="#2FF522"/>
<path d="M139.788 5H149.833L148.159 9H138.114L139.788 5Z" fill="#2FF522"/>
<path d="M154.855 5H164.9L163.225 9H153.181L154.855 5Z" fill="#2FF522"/>
<path d="M169.922 5H179.967L178.292 9H168.248L169.922 5Z" fill="#2FF522"/>
<path d="M205.915 3H215.96L211.775 9H201.73L205.915 3Z" fill="#2FF522"/>
<path d="M190.43 5L191.685 3H198.382L194.196 9H184.152L187.197 5.03447L190.43 5Z" fill="#2FF522"/>
<path d="M223.493 3H233.538L229.353 9H219.308L223.493 3Z" fill="#2FF522"/>
<path d="M241.071 3H251.116L246.931 9H236.886L241.071 3Z" fill="#2FF522"/>
<path d="M258.65 3H268.694L264.509 9H254.464L258.65 3Z" fill="#2FF522"/>
<path d="M276.228 3H286.272L282.087 9H272.042L276.228 3Z" fill="#2FF522"/>
<path d="M293.806 3H303.85L299.665 9H289.621L293.806 3Z" fill="#2FF522"/>
<path d="M311.384 3H321.429L317.243 9H307.199L311.384 3Z" fill="#2FF522"/>
<path d="M328.962 3H339.007L334.821 9H324.777L328.962 3Z" fill="#2FF522"/>
<path d="M346.54 3H356.585L352.4 9H342.355L346.54 3Z" fill="#2FF522"/>
<path d="M364.118 3H374.163L369.978 9H359.933L364.118 3Z" fill="#2FF522"/>
</svg>
